<svg width="55" height="55" viewBox="0 0 55 55" fill="none" xmlns="http://www.w3.org/2000/svg">
<path d="M49.9491 17.2928L22.4491 44.7928C22.2095 45.0331 21.9249 45.2238 21.6116 45.354C21.2982 45.4841 20.9622 45.5511 20.6229 45.5511C20.2836 45.5511 19.9476 45.4841 19.6342 45.354C19.3208 45.2238 19.0362 45.0331 18.7967 44.7928L6.76546 32.7615C6.52564 32.5217 6.33541 32.237 6.20562 31.9237C6.07583 31.6103 6.00903 31.2745 6.00903 30.9354C6.00903 30.5962 6.07583 30.2604 6.20562 29.947C6.33541 29.6337 6.52564 29.349 6.76546 29.1092C7.00527 28.8694 7.28998 28.6791 7.60331 28.5493C7.91665 28.4196 8.25248 28.3528 8.59163 28.3528C8.93078 28.3528 9.26661 28.4196 9.57995 28.5493C9.89328 28.6791 10.178 28.8694 10.4178 29.1092L20.625 39.3164L46.301 13.6447C46.7853 13.1604 47.4422 12.8883 48.1272 12.8883C48.8121 12.8883 49.469 13.1604 49.9533 13.6447C50.4377 14.1291 50.7098 14.786 50.7098 15.4709C50.7098 16.1559 50.4377 16.8127 49.9533 17.2971L49.9491 17.2928Z" fill="#249336"/>
</svg>
