<svg width="24" height="24" viewBox="0 0 24 24"  xmlns="http://www.w3.org/2000/svg">
<path d="M0 4C0 3.73478 0.105357 3.48043 0.292893 3.29289C0.48043 3.10536 0.734784 3 1 3H23C23.2652 3 23.5196 3.10536 23.7071 3.29289C23.8946 3.48043 24 3.73478 24 4C24 4.26522 23.8946 4.51957 23.7071 4.70711C23.5196 4.89464 23.2652 5 23 5H1C0.734784 5 0.48043 4.89464 0.292893 4.70711C0.105357 4.51957 0 4.26522 0 4ZM0 12C0 11.7348 0.105357 11.4804 0.292893 11.2929C0.48043 11.1054 0.734784 11 1 11H23C23.2652 11 23.5196 11.1054 23.7071 11.2929C23.8946 11.4804 24 11.7348 24 12C24 12.2652 23.8946 12.5196 23.7071 12.7071C23.5196 12.8946 23.2652 13 23 13H1C0.734784 13 0.48043 12.8946 0.292893 12.7071C0.105357 12.5196 0 12.2652 0 12ZM0 20C0 19.7348 0.105357 19.4804 0.292893 19.2929C0.48043 19.1054 0.734784 19 1 19H23C23.2652 19 23.5196 19.1054 23.7071 19.2929C23.8946 19.4804 24 19.7348 24 20C24 20.2652 23.8946 20.5196 23.7071 20.7071C23.5196 20.8946 23.2652 21 23 21H1C0.734784 21 0.48043 20.8946 0.292893 20.7071C0.105357 20.5196 0 20.2652 0 20Z" />
</svg>
