<svg width="55" height="55" viewBox="0 0 55 55" fill="none" xmlns="http://www.w3.org/2000/svg">
<g clip-path="url(#clip0_660_5)">
<path fill-rule="evenodd" clip-rule="evenodd" d="M27.4999 30.7404L40.4639 43.7044C40.8961 44.1218 41.475 44.3528 42.0759 44.3476C42.6767 44.3424 43.2515 44.1014 43.6764 43.6765C44.1013 43.2516 44.3423 42.6768 44.3475 42.0759C44.3527 41.4751 44.1218 40.8962 43.7043 40.464L30.7404 27.5L43.7043 14.5361C44.1218 14.1038 44.3527 13.525 44.3475 12.9241C44.3423 12.3232 44.1013 11.7485 43.6764 11.3236C43.2515 10.8987 42.6767 10.6577 42.0759 10.6524C41.475 10.6472 40.8961 10.8782 40.4639 11.2956L27.4999 24.2596L14.536 11.2956C14.1018 10.8885 13.5263 10.6663 12.9312 10.6759C12.3361 10.6856 11.7681 10.9264 11.3474 11.3474C10.9267 11.7684 10.6863 12.3366 10.677 12.9317C10.6678 13.5268 10.8904 14.1022 11.2979 14.5361L24.2595 27.5L11.2956 40.464C11.0767 40.6754 10.9021 40.9282 10.782 41.2078C10.6619 41.4874 10.5987 41.7881 10.596 42.0924C10.5934 42.3967 10.6514 42.6985 10.7666 42.9801C10.8818 43.2618 11.052 43.5176 11.2672 43.7328C11.4823 43.948 11.7382 44.1181 12.0198 44.2334C12.3015 44.3486 12.6032 44.4066 12.9075 44.4039C13.2118 44.4013 13.5125 44.3381 13.7921 44.218C14.0717 44.0979 14.3246 43.9233 14.536 43.7044L27.4999 30.7404Z" fill="#DB2C32"/>
</g>
<defs>
<clipPath id="clip0_660_5">
<rect width="55" height="55" fill="white"/>
</clipPath>
</defs>
</svg>
