<svg width="249" height="44" viewBox="0 0 249 44" fill="none" xmlns="http://www.w3.org/2000/svg">
<g clip-path="url(#clip0_408_965)">
<path d="M15.2259 37.6276H20.6287V6.59534H12.7701C4.86693 6.59534 0.714412 10.6585 0.714412 16.6418C0.714412 21.4193 2.9916 24.2324 7.05481 27.1346L0 37.6276H5.84924L13.7078 25.8844L10.9841 24.0537C7.67992 21.8212 6.0725 20.0798 6.0725 16.3293C6.0725 13.025 8.39433 10.7925 12.8148 10.7925H15.2259V37.6276ZM119.396 38.0741C121.852 38.0741 123.593 37.6276 124.888 36.69V32.3587C123.549 33.2965 121.941 33.8769 119.709 33.8769C115.913 33.8769 114.351 30.9299 114.351 26.2863C114.351 21.4193 116.271 18.9189 119.753 18.9189C121.807 18.9189 123.817 19.6334 124.888 20.3032V15.7933C123.772 15.1682 121.807 14.7218 119.173 14.7218C112.386 14.7218 108.858 19.5886 108.858 26.4202C108.858 33.9216 112.297 38.0741 119.396 38.0741ZM86.1759 36.1095V31.7784C84.5239 32.8947 81.7555 33.8769 79.1658 33.8769C75.2812 33.8769 73.8077 32.0462 73.5844 28.2956H86.3993V25.4826C86.3993 17.6688 82.9611 14.7218 77.6477 14.7218C71.1732 14.7218 68.0924 19.6779 68.0924 26.4649C68.0924 34.2788 71.9324 38.0741 78.7192 38.0741C82.1128 38.0741 84.6132 37.1811 86.1759 36.1095ZM37.5066 15.1682V24.0537H30.4072V15.1682H25.0938V37.6276H30.4072V28.2509H37.5066V37.6276H42.8201V15.1682H37.5066ZM66.7976 33.4304H64.4311V15.1682H48.9372V17.0883C48.9372 22.5803 48.58 29.6797 46.7047 33.4304H45.0526V42.7624H49.9642V37.6276H61.886V42.7624H66.7976V33.4304ZM103.143 37.6276H109.171L100.643 25.5273L108.144 15.1682H102.786L95.2846 25.5273V15.1682H89.9712V37.6276H95.2846V26.5988L103.143 37.6276ZM77.5584 18.9189C80.1928 18.9189 80.9965 21.1068 80.9965 23.9198V24.3663H73.5844C73.7183 20.7942 75.0133 18.9189 77.5584 18.9189ZM59.1175 33.4304H51.6163C53.0898 30.037 53.4915 23.9198 53.4915 20.0352V19.3654H59.1175V33.4304Z" fill="black"/>
</g>
<path d="M185.587 6.59534V37.6276H203.277V33.4304H191.006V24.1431H201.216V19.9459H191.006V10.7925H203.052V6.59534H185.587Z" fill="black"/>
<path d="M227.597 33.4305H225.224V15.1683H209.685V17.0883C209.685 22.5804 209.326 29.6798 207.446 33.4305H205.788V42.7624H210.714V37.6276H222.672V42.7624H227.597V33.4305ZM219.895 33.4305H212.372C213.849 30.037 214.252 23.9199 214.252 20.0353V19.3654H219.895V33.4305Z" fill="black"/>
<path d="M247.12 22.3124C247.12 16.8651 244.344 14.8112 238.702 14.8112C235.164 14.8112 232.387 15.9274 230.774 16.8651V21.2855C232.209 20.2139 235.343 19.0529 238.075 19.0529C240.627 19.0529 241.792 19.946 241.792 22.3572V23.6073H240.94C232.79 23.6073 229.162 26.2864 229.162 30.8408C229.162 35.3951 231.939 37.9402 236.06 37.9402C239.194 37.9402 240.537 36.9132 241.567 35.8417H241.792C241.836 36.4221 242.016 37.1812 242.195 37.6276H247.389C247.21 35.797 247.12 33.9663 247.12 32.1356V22.3124ZM241.792 32.2696C241.12 33.2519 239.867 34.0556 237.985 34.0556C235.746 34.0556 234.627 32.7161 234.627 30.7067C234.627 28.0725 236.463 27.1347 241.03 27.1347H241.792V32.2696Z" fill="black"/>
<path d="M170.537 33.1985C167.153 36.1756 162.74 37.9713 157.926 37.9713C147.826 37.9713 140.258 30.172 140.258 21.257C140.258 12.8738 146.962 6.02856 155.273 6.02856C163.118 6.02856 168.777 12.0925 168.777 18.6582C168.777 24.8126 163.908 29.8047 157.926 29.8047C152.452 29.8047 148.589 25.6706 148.589 21.257C148.589 17.2957 151.662 14.1952 155.276 14.1952C158.476 14.1952 160.45 16.5198 160.45 18.6582C160.45 20.5141 159.141 21.6353 157.926 21.6353C157.496 21.6353 157.333 21.5449 157.161 21.438C157.552 20.9362 157.746 20.2839 157.648 19.6039C157.453 18.2908 156.234 17.3834 154.923 17.578C153.8 17.7452 153.086 18.5074 152.735 19.0721C152.334 19.7054 152.121 20.4675 152.121 21.257C152.121 24.4068 155.066 26.4437 157.926 26.4437C162.103 26.4465 165.245 22.8086 165.245 18.6582C165.245 13.5784 160.829 9.38676 155.276 9.38676C148.826 9.38676 143.793 14.8312 143.793 21.257C143.793 28.5381 150.019 34.6103 157.929 34.6103C166.672 34.6103 173.577 27.3512 173.577 18.6554C173.577 9.30727 165.64 1.22015 155.276 1.22015C144.252 1.22015 135.465 10.2832 135.465 21.257C135.465 32.9738 145.33 42.7798 157.929 42.7798C163.955 42.7798 169.483 40.5236 173.702 36.8117L170.537 33.1985ZM156.912 21.2049C156.912 21.1994 156.909 21.2022 156.912 21.2049Z" fill="#F4CA3A"/>
<path d="M22.0651 37.4H16.2662V10.7631H13.6767C8.93545 10.7631 6.45541 12.9631 6.45541 16.2461C6.45541 19.9692 8.16955 21.6954 11.7073 23.8954L14.625 25.7231L6.23658 37.4H0L7.54954 26.9754C3.20947 24.0984 0.765896 21.2892 0.765896 16.5507C0.765896 10.6277 5.21538 6.59998 13.6402 6.59998H22.0286L22.0651 37.4Z" fill="#FC3F1D"/>
<defs>
<clipPath id="clip0_408_965">
<rect width="101.2" height="35.2" fill="white" transform="translate(24.2 6.59998)"/>
</clipPath>
</defs>
</svg>
