<svg width="32" height="32" viewBox="0 0 32 32" fill="none" xmlns="http://www.w3.org/2000/svg">
<path d="M29.3508 24.6226C26.5194 26.915 22.8263 28.2976 18.7971 28.2976C10.3447 28.2976 4.01123 22.2923 4.01123 15.4279C4.01123 8.97307 9.62172 3.70237 16.5775 3.70237C23.1426 3.70237 27.8785 8.37149 27.8785 13.4269C27.8785 18.1657 23.8037 22.0095 18.7971 22.0095C14.2163 22.0095 10.9836 18.8264 10.9836 15.4279C10.9836 12.3778 13.5553 9.99048 16.5799 9.99048C19.2575 9.99048 20.9095 11.7804 20.9095 13.4269C20.9095 14.856 19.8139 15.7192 18.7971 15.7192C18.4376 15.7192 18.3009 15.6496 18.1569 15.5673C18.4844 15.181 18.6469 14.6787 18.5644 14.1551C18.4019 13.144 17.3814 12.4453 16.2845 12.5952C15.344 12.7239 14.7469 13.3108 14.4527 13.7456C14.1179 14.2333 13.9394 14.82 13.9394 15.4279C13.9394 17.8532 16.4039 19.4216 18.7971 19.4216C22.2932 19.4238 24.9227 16.6226 24.9227 13.4269C24.9227 9.51556 21.2271 6.28811 16.5799 6.28811C11.1818 6.28811 6.96981 10.4802 6.96981 15.4279C6.96981 21.0343 12.1802 25.7097 18.7995 25.7097C26.1168 25.7097 31.8954 20.1203 31.8954 13.4248C31.8954 6.2269 25.2526 0 16.5799 0C7.35426 0 0 6.97835 0 15.4279C0 24.4496 8.25575 32 18.7995 32C23.8431 32 28.4694 30.2628 32 27.4048L29.3508 24.6226ZM17.9489 15.3879C17.9489 15.3836 17.9464 15.3857 17.9489 15.3879Z" fill="#F4CA3A"/>
</svg>
