<svg width="113" height="20" viewBox="0 0 113 20" fill="none" xmlns="http://www.w3.org/2000/svg">
<g clip-path="url(#clip0_352_1170)">
<g clip-path="url(#clip1_352_1170)">
<path d="M6.92087 17.1034H9.37667V2.99786H5.8046C2.21224 2.99786 0.324733 4.84478 0.324733 7.56444C0.324733 9.73604 1.35982 11.0147 3.20673 12.3339L0 17.1034H2.65875L6.23081 11.7656L4.99277 10.9335C3.49087 9.9187 2.76023 9.12717 2.76023 7.42237C2.76023 5.92046 3.81561 4.90567 5.82489 4.90567H6.92087V17.1034ZM54.2709 17.3064C55.3872 17.3064 56.1787 17.1034 56.7673 16.6772V14.7085C56.1585 15.1348 55.4278 15.3986 54.413 15.3986C52.6879 15.3986 51.9775 14.059 51.9775 11.9483C51.9775 9.73604 52.8503 8.5995 54.4333 8.5995C55.3669 8.5995 56.2803 8.92424 56.7673 9.2287V7.17877C56.2599 6.89464 55.3669 6.6917 54.1695 6.6917C51.0845 6.6917 49.4811 8.9039 49.4811 12.0092C49.4811 15.4189 51.0439 17.3064 54.2709 17.3064ZM39.1709 16.4134V14.4447C38.4199 14.9521 37.1616 15.3986 35.9845 15.3986C34.2187 15.3986 33.5489 14.5664 33.4475 12.8616H39.2724V11.583C39.2724 8.03124 37.7096 6.6917 35.2944 6.6917C32.3515 6.6917 30.9511 8.9445 30.9511 12.0295C30.9511 15.5812 32.6965 17.3064 35.7815 17.3064C37.324 17.3064 38.4605 16.9005 39.1709 16.4134ZM17.0485 6.89464V10.9335H13.8215V6.89464H11.4063V17.1034H13.8215V12.8413H17.0485V17.1034H19.4637V6.89464H17.0485ZM30.3625 15.1956H29.2869V6.89464H22.2442V7.76737C22.2442 10.2638 22.0818 13.4908 21.2294 15.1956H20.4785V19.4374H22.711V17.1034H28.13V19.4374H30.3625V15.1956ZM46.8833 17.1034H49.6232L45.7467 11.6033L49.1564 6.89464H46.7209L43.3112 11.6033V6.89464H40.896V17.1034H43.3112V12.0904L46.8833 17.1034ZM35.2538 8.5995C36.4513 8.5995 36.8166 9.59397 36.8166 10.8726V11.0756H33.4475C33.5083 9.4519 34.0969 8.5995 35.2538 8.5995ZM26.8716 15.1956H23.4619C24.1317 13.6532 24.3143 10.8726 24.3143 9.1069V8.80244H26.8716V15.1956Z" fill="black"/>
</g>
<path d="M84.1089 2.99786V17.1034H92.1262V15.1956H86.5649V10.9741H91.1922V9.0663H86.5649V4.90567H92.0242V2.99786H84.1089Z" fill="black"/>
<path d="M103.148 15.1957H102.073V6.89465H95.0302V7.76739C95.0302 10.2638 94.8675 13.4908 94.0155 15.1957H93.2642V19.4375H95.4968V17.1035H100.916V19.4375H103.148V15.1957ZM99.6575 15.1957H96.2482C96.9175 13.6532 97.1002 10.8727 97.1002 9.10692V8.80245H99.6575V15.1957Z" fill="black"/>
<path d="M111.996 10.142C111.996 7.66596 110.738 6.73236 108.181 6.73236C106.577 6.73236 105.319 7.23976 104.588 7.66596V9.67523C105.238 9.18816 106.659 8.66043 107.897 8.66043C109.053 8.66043 109.581 9.06636 109.581 10.1624V10.7306H109.195C105.501 10.7306 103.857 11.9484 103.857 14.0186C103.857 16.0887 105.116 17.2456 106.983 17.2456C108.404 17.2456 109.013 16.7788 109.479 16.2917H109.581C109.601 16.5555 109.683 16.9006 109.764 17.1035H112.118C112.037 16.2714 111.996 15.4392 111.996 14.6071V10.142ZM109.581 14.668C109.277 15.1145 108.709 15.4798 107.856 15.4798C106.841 15.4798 106.334 14.871 106.334 13.9576C106.334 12.7602 107.166 12.334 109.236 12.334H109.581V14.668Z" fill="black"/>
<path d="M77.2879 15.0902C75.7545 16.4435 73.7545 17.2597 71.5725 17.2597C66.9952 17.2597 63.5653 13.7146 63.5653 9.66229C63.5653 5.85175 66.6037 2.74027 70.3705 2.74027C73.9259 2.74027 76.4905 5.49661 76.4905 8.48102C76.4905 11.2785 74.2839 13.5476 71.5725 13.5476C69.0919 13.5476 67.3412 11.6685 67.3412 9.66229C67.3412 7.86169 68.7339 6.45236 70.3719 6.45236C71.8219 6.45236 72.7165 7.50902 72.7165 8.48102C72.7165 9.32462 72.1232 9.83422 71.5725 9.83422C71.3779 9.83422 71.3039 9.79315 71.2259 9.74455C71.4032 9.51649 71.4912 9.21995 71.4465 8.91089C71.3585 8.31402 70.8059 7.90155 70.2119 7.99002C69.7025 8.06602 69.3792 8.41249 69.2199 8.66915C69.0385 8.95702 68.9419 9.30342 68.9419 9.66229C68.9419 11.094 70.2765 12.0199 71.5725 12.0199C73.4659 12.0212 74.8899 10.3676 74.8899 8.48102C74.8899 6.17199 72.8885 4.26672 70.3719 4.26672C67.4485 4.26672 65.1675 6.74149 65.1675 9.66229C65.1675 12.9719 67.9892 15.732 71.5739 15.732C75.5365 15.732 78.6659 12.4324 78.6659 8.47975C78.6659 4.23059 75.0685 0.554626 70.3719 0.554626C65.3757 0.554626 61.3931 4.67419 61.3931 9.66229C61.3931 14.9881 65.8639 19.4454 71.5739 19.4454C74.3052 19.4454 76.8105 18.4198 78.7225 16.7326L77.2879 15.0902ZM71.1132 9.63862C71.1132 9.63609 71.1119 9.63735 71.1132 9.63862Z" fill="#F4CA3A"/>
<path d="M10 17H7.3719V4.89231H6.19835C4.04959 4.89231 2.92562 5.89231 2.92562 7.38462C2.92562 9.07692 3.70248 9.86154 5.30578 10.8615L6.6281 11.6923L2.82645 17H0L3.42149 12.2615C1.45455 10.9538 0.347107 9.67692 0.347107 7.52308C0.347107 4.83077 2.36364 3 6.18182 3H9.98347L10 17Z" fill="#FC3F1D"/>
</g>
<defs>
<clipPath id="clip0_352_1170">
<rect width="113" height="20" fill="white"/>
</clipPath>
<clipPath id="clip1_352_1170">
<rect width="46" height="16" fill="white" transform="translate(11 3)"/>
</clipPath>
</defs>
</svg>
